<?xml version="1.0" encoding="UTF-8"?>
<svg version="1.1" viewBox="0 0 2700 1044" width="675" height="261" xmlns="http://www.w3.org/2000/svg">
<path transform="translate(40,75)" d="m0 0h255l2 2 3 19 11 83 12 99 15 119 10 77 1 3v-5h2v-12l14-124 12-108 9-79 7-63 2-10 1-1h218l40 1 1 6v885l-1 1h-175l-1-102-1-335-1-111h-1l-1-7-4 35-14 124-12 106-12 107-11 96-7 64-2 18-2 5h-123l-1-1-5-38-22-182-20-165-19-157-2-17h-1l-1 190-1 288-1 82h-175v-892zm437 312m-1 4m-1 5v7h1v-7zm-1 9v5h1v-5z" fill="#FEFEFE"/>
<path transform="translate(971,75)" d="m0 0h192l3 5 8 51 19 108 10 59 2 17h2v-9l11-62 11-64 15-87 4-17 1-1h166l1 5-21 114-15 80-10 54-12 64-9 47-5 27v8l15 68 21 96 41 187 23 105 8 35-1 3h-185l-3-9-11-47-12-59-9-47-12-70-11-70-2-16-11 99-9 70-10 77-9 70-2 2h-194v-8l8-52 14-92 11-72 40-260 1-8v-11l-14-71-16-83-19-98-25-130z" fill="#FEFEFE"/>
<path transform="translate(2296,75)" d="m0 0h313l19 1v180l-48 1-84 1-1 169h122l3 2v166l-7 2h-118v190h144l2 1 1 4v174l-2 2h-345v-892z" fill="#FEFEFE"/>
<path transform="translate(1446,75)" d="m0 0h433l2 1v180l-9 1h-109v710l-1 1h-200v-709l1-2h-116l-2-1v-180z" fill="#fff"/>
<path transform="translate(1928,75)" d="m0 0h173l26 1 1 6-1 705h120l1 1v180h-321v-892z" fill="#FEFEFE"/>
<path transform="translate(732,75)" d="m0 0h198l1 1v891l-1 1h-199l-1-54v-743l1-95z" fill="#fff"/>
</svg>
